<?xml version="1.0" standalone="no"?><!-- Generator: Gravit.io --><svg xmlns="http://www.w3.org/2000/svg" xmlns:xlink="http://www.w3.org/1999/xlink" style="isolation:isolate" viewBox="0 0 450 450" width="450" height="450"><defs><clipPath id="_clipPath_Q0VQ5S9QDRITVcr4lLzKPBuRDv1krrXB"><rect width="450" height="450"/></clipPath></defs><g clip-path="url(#_clipPath_Q0VQ5S9QDRITVcr4lLzKPBuRDv1krrXB)"><g id="Group"><path d=" M 124.333 154.533 L 179.7 189.767 L 280.367 169.633 C 280.367 169.633 295.467 148.121 295.467 144.467 L 295.467 124.333 C 295.467 118.746 250.72 94.133 245.133 94.133 L 124.333 94.133 C 118.746 94.133 114.267 98.613 114.267 104.2 L 114.267 144.467 C 114.267 150.054 118.746 154.533 124.333 154.533 Z " fill="rgb(153,95,26)"/><path d=" M 335.733 164.6 C 355.867 164.6 386.067 235.067 386.067 235.067 L 23.667 235.067 L 23.667 204.867 C 23.667 204.867 23.667 184.774 43.8 184.774 C 63.933 184.774 315.6 164.6 335.733 164.6 Z  M 335.733 376 L 114.267 376 C 86.855 376 13.6 331.958 13.6 285.4 C 13.6 258.623 37.116 235.067 63.933 235.067 L 386.067 235.067 C 412.884 235.067 436.4 258.623 436.4 285.4 C 436.4 331.958 363.185 376 335.733 376 Z  M 295.467 124.333 L 406.2 124.333 L 406.2 144.467 L 295.467 144.467 L 295.467 124.333 Z  M 94.133 114.267 L 114.267 114.267 L 114.267 134.4 L 94.133 134.4 L 94.133 114.267 Z " fill="rgb(153,95,26)"/><path d=" M 406.2 114.267 L 386.067 124.333 L 386.067 144.507 L 406.2 154.533 L 436.4 154.533 L 436.4 114.267 L 406.2 114.267 Z  M 426.333 144.467 L 406.2 144.467 L 406.2 124.333 L 426.333 124.333 L 426.333 144.467 Z  M 225 94.133 L 225 84.067 C 225 78.48 220.52 74 214.933 74 L 144.467 74 C 138.88 74 134.4 78.48 134.4 84.067 L 134.4 94.133 L 225 94.133 Z " fill="rgb(153,95,26)"/><path d=" M 386.067 255.2 L 63.933 255.2 C 46.941 255.2 33.733 271.438 33.733 285.4 C 33.733 319.174 97.707 355.867 114.267 355.867 L 335.733 355.867 C 352.293 355.867 416.267 319.174 416.267 285.4 C 416.267 271.438 403.049 255.2 386.067 255.2 Z " fill="rgb(86,48,13)"/><path d=" M 396.133 290.433 C 396.133 304.315 384.849 315.6 370.967 315.6 C 357.072 315.589 345.811 304.328 345.8 290.433 C 345.8 276.551 357.085 265.267 370.967 265.267 C 384.849 265.267 396.133 276.551 396.133 290.433 Z  M 104.2 290.433 C 104.2 304.332 92.932 315.6 79.033 315.6 C 65.134 315.6 53.867 304.332 53.867 290.433 C 53.867 276.534 65.134 265.267 79.033 265.267 C 92.932 265.267 104.2 276.534 104.2 290.433 Z  M 154.533 325.667 C 154.533 336.786 145.519 345.8 134.4 345.8 C 123.281 345.8 114.267 336.786 114.267 325.667 C 114.267 314.547 123.281 305.533 134.4 305.533 C 145.519 305.533 154.533 314.547 154.533 325.667 Z  M 214.933 325.667 C 214.933 336.786 205.919 345.8 194.8 345.8 C 183.681 345.8 174.667 336.786 174.667 325.667 C 174.667 314.547 183.681 305.533 194.8 305.533 C 205.919 305.533 214.933 314.547 214.933 325.667 Z  M 335.733 325.667 C 335.733 336.786 326.719 345.8 315.6 345.8 C 304.481 345.8 295.467 336.786 295.467 325.667 C 295.467 314.547 304.481 305.533 315.6 305.533 C 326.719 305.533 335.733 314.547 335.733 325.667 Z  M 275.333 325.667 C 275.333 336.786 266.319 345.8 255.2 345.8 C 244.081 345.8 235.067 336.786 235.067 325.667 C 235.067 314.547 244.081 305.533 255.2 305.533 C 266.319 305.533 275.333 314.547 275.333 325.667 Z  M 335.733 164.6 C 329.955 164.6 23.667 214.933 23.667 214.933 L 23.667 235.067 L 386.067 235.067 C 386.067 235.067 355.867 164.6 335.733 164.6 Z  M 245.133 94.133 L 124.333 94.133 C 118.746 94.133 114.267 98.613 114.267 104.2 L 114.267 144.467 C 114.267 150.054 118.746 154.533 124.333 154.533 L 135.809 161.419 L 124.384 154.533 L 174.667 154.533 L 194.488 174.355 C 226.339 171.989 257.908 169.633 283.195 167.821 C 289.094 160.12 295.467 148.121 295.467 144.467 L 295.467 124.333 C 295.467 118.746 250.72 94.133 245.133 94.133 Z " fill="rgb(198,134,50)"/><path d=" M 311.744 197.357 L 325.667 199.37 L 315.6 209.195 L 317.956 223.037 L 305.533 216.504 L 293.111 223.037 L 295.467 209.195 L 285.4 199.36 L 299.322 197.347 L 305.533 184.733 L 311.744 197.357 Z " fill="rgb(255,243,224)"/></g></g></svg>